<svg width="36" height="36" viewBox="0 0 36 36" fill="none" xmlns="http://www.w3.org/2000/svg">
<path d="M13.5 16.5C16.8137 16.5 19.5 13.8137 19.5 10.5C19.5 7.18629 16.8137 4.5 13.5 4.5C10.1863 4.5 7.5 7.18629 7.5 10.5C7.5 13.8137 10.1863 16.5 13.5 16.5Z" stroke="#898989" stroke-width="2.5" stroke-linecap="round" stroke-linejoin="round"/>
<path d="M4.5 31.5V28.5C4.5 26.9087 5.13214 25.3826 6.25736 24.2574C7.38258 23.1321 8.9087 22.5 10.5 22.5H16.5C18.0913 22.5 19.6174 23.1321 20.7426 24.2574C21.8679 25.3826 22.5 26.9087 22.5 28.5V31.5M24 16.5L27 19.5L33 13.5" stroke="#898989" stroke-width="2.5" stroke-linecap="round" stroke-linejoin="round"/>
</svg>
