<svg width="24" height="24" viewBox="0 0 24 24" fill="none" xmlns="http://www.w3.org/2000/svg">
<path d="M14.9999 3.00003L8.99991 3.00003M14.9999 12L18.5859 12C18.7837 12.0001 18.977 12.0587 19.1414 12.1686C19.3058 12.2785 19.4339 12.4347 19.5096 12.6174C19.5853 12.8001 19.6051 13.0011 19.5665 13.1951C19.5279 13.389 19.4327 13.5672 19.2929 13.707L12.7069 20.293C12.5194 20.4805 12.2651 20.5858 11.9999 20.5858C11.7347 20.5858 11.4804 20.4805 11.2929 20.293L4.70691 13.707C4.5671 13.5672 4.47189 13.389 4.43332 13.1951C4.39476 13.0011 4.41456 12.8001 4.49023 12.6174C4.5659 12.4347 4.69404 12.2785 4.85845 12.1686C5.02286 12.0587 5.21616 12.0001 5.41391 12L8.99991 12L8.99991 6.00003L14.9999 6.00003L14.9999 12Z" stroke="#00AB6C" stroke-width="2" stroke-linecap="round" stroke-linejoin="round"/>
</svg>
