<svg width="22" height="22" viewBox="0 0 22 22" fill="none" xmlns="http://www.w3.org/2000/svg">
<path d="M2.33335 1.66663H19.6667C19.8587 1.73397 20.0328 1.84437 20.1755 1.98938C20.3183 2.13438 20.426 2.31014 20.4903 2.50319C20.5547 2.69624 20.574 2.90145 20.5468 3.10311C20.5196 3.30478 20.4466 3.49754 20.3334 3.66663L13.6667 11V20.3333L8.33335 16.3333V11L1.66669 3.66663C1.55348 3.49754 1.48047 3.30478 1.45326 3.10311C1.42605 2.90145 1.44536 2.69624 1.50971 2.50319C1.57406 2.31014 1.68174 2.13438 1.8245 1.98938C1.96727 1.84437 2.14133 1.73397 2.33335 1.66663Z" stroke="#00AB6C" stroke-width="2" stroke-linecap="round" stroke-linejoin="round"/>
</svg>
