<svg width="25" height="24" viewBox="0 0 25 24" fill="none" xmlns="http://www.w3.org/2000/svg">
<path d="M12.5 21C17.4706 21 21.5 16.9706 21.5 12C21.5 7.02944 17.4706 3 12.5 3C7.52944 3 3.5 7.02944 3.5 12C3.5 16.9706 7.52944 21 12.5 21Z" stroke="#00AB6C" stroke-width="2" stroke-linecap="round" stroke-linejoin="round"/>
<path d="M12.5 17V17.01M12.5 13.5C12.4816 13.1754 12.5692 12.8536 12.7495 12.583C12.9299 12.3125 13.1933 12.1079 13.5 12C13.8759 11.8563 14.2132 11.6272 14.4856 11.331C14.7579 11.0347 14.9577 10.6792 15.0693 10.2926C15.1809 9.90595 15.2013 9.49869 15.1287 9.10286C15.0562 8.70704 14.8928 8.33345 14.6513 8.01151C14.4099 7.68958 14.097 7.42808 13.7373 7.24762C13.3776 7.06715 12.9809 6.97264 12.5785 6.97152C12.1761 6.97041 11.7789 7.06272 11.4182 7.24119C11.0576 7.41965 10.7432 7.67941 10.5 8" stroke="#00AB6C" stroke-width="2" stroke-linecap="round" stroke-linejoin="round"/>
</svg>
