<svg width="36" height="36" viewBox="0 0 36 36" fill="none" xmlns="http://www.w3.org/2000/svg">
<path d="M18 13.5V16.5M18 22.5V22.515M7.49998 28.5H28.5C28.9894 28.4966 29.4706 28.3734 29.9016 28.1413C30.3325 27.9092 30.7001 27.5752 30.9723 27.1684C31.2445 26.7616 31.413 26.2943 31.4632 25.8074C31.5133 25.3205 31.4435 24.8288 31.26 24.375L20.61 6.00002C20.3505 5.53112 19.9702 5.14027 19.5086 4.8681C19.047 4.59594 18.5209 4.45239 17.985 4.45239C17.4491 4.45239 16.923 4.59594 16.4614 4.8681C15.9997 5.14027 15.6194 5.53112 15.36 6.00002L4.70998 24.375C4.52989 24.8184 4.45848 25.2984 4.50171 25.775C4.54493 26.2516 4.70154 26.7109 4.95846 27.1146C5.21537 27.5184 5.56515 27.8548 5.97857 28.0958C6.39199 28.3368 6.85707 28.4754 7.33498 28.5" stroke="#898989" stroke-width="2.5" stroke-linecap="round" stroke-linejoin="round"/>
</svg>
