<svg width="110" height="110" viewBox="0 0 110 110" fill="none" xmlns="http://www.w3.org/2000/svg">
<path opacity="0.2" d="M55 110C85.3757 110 110 85.3757 110 55C110 24.6243 85.3757 0 55 0C24.6243 0 0 24.6243 0 55C0 85.3757 24.6243 110 55 110Z" fill="#00AB6C"/>
<path d="M55 99.2859C79.4585 99.2859 99.286 79.4584 99.286 55C99.286 30.5415 79.4585 10.7141 55 10.7141C30.5416 10.7141 10.7141 30.5415 10.7141 55C10.7141 79.4584 30.5416 99.2859 55 99.2859Z" fill="#00AB6C"/>
<path d="M49.8348 73.9344L34.2271 53.868L43.3035 46.8085L50.6928 56.3096L75.6563 29.9582L84.0044 37.8661L49.8348 73.9344Z" fill="white"/>
</svg>
