<svg width="36" height="36" viewBox="0 0 36 36" fill="none" xmlns="http://www.w3.org/2000/svg">
    <path d="M29.046 6.954C29.6084 7.51658 29.9243 8.27951 29.9243 9.075C29.9243 9.87049 29.6084 10.6334 29.046 11.196C29.6884 12.9902 29.8304 14.9254 29.4567 16.7942C29.0831 18.6629 28.2079 20.3948 26.925 21.804L23.742 24.984C23.1623 25.7233 22.7643 26.5885 22.5801 27.5097C22.3959 28.431 22.4306 29.3826 22.6815 30.288L5.71198 13.32C6.61714 13.5706 7.5685 13.6052 8.48947 13.421C9.41044 13.2368 10.2753 12.8389 11.0145 12.2595L14.196 9.075C15.6052 7.79207 17.337 6.91687 19.2058 6.54323C21.0746 6.16958 23.0098 6.31158 24.804 6.954C25.3666 6.39159 26.1295 6.07564 26.925 6.07564C27.7205 6.07564 28.4834 6.39159 29.046 6.954V6.954Z" stroke="#898989" stroke-width="2.5" stroke-linecap="round" stroke-linejoin="round"/>
    <path d="M11.0145 18.621L9.954 19.6815C9.11001 20.5255 8.63586 21.6702 8.63586 22.8638C8.63586 24.0573 9.11001 25.202 9.954 26.046C10.798 26.89 11.9427 27.3641 13.1362 27.3641C14.3298 27.3641 15.4745 26.89 16.3185 26.046L17.379 24.9855" stroke="#898989" stroke-width="2.5" stroke-linecap="round" stroke-linejoin="round"/>
</svg>
