<svg width="34" height="34" viewBox="0 0 34 34" fill="none" xmlns="http://www.w3.org/2000/svg">
    <path d="M21.25 11.3333H21.2642" stroke="#898989" stroke-width="2" stroke-linecap="round"
        stroke-linejoin="round" />
    <path
        d="M24.0834 5.66666H9.91675C7.56954 5.66666 5.66675 7.56945 5.66675 9.91666V24.0833C5.66675 26.4305 7.56954 28.3333 9.91675 28.3333H24.0834C26.4306 28.3333 28.3334 26.4305 28.3334 24.0833V9.91666C28.3334 7.56945 26.4306 5.66666 24.0834 5.66666Z"
        stroke="#898989" stroke-width="2" stroke-linecap="round" stroke-linejoin="round" />
    <path
        d="M5.66675 21.25L11.3334 15.5833C11.9795 14.9616 12.7124 14.6343 13.4584 14.6343C14.2044 14.6343 14.9373 14.9616 15.5834 15.5833L22.6667 22.6667"
        stroke="#898989" stroke-width="2" stroke-linecap="round" stroke-linejoin="round" />
    <path
        d="M19.8335 19.8333L21.2502 18.4167C21.8962 17.795 22.6291 17.4677 23.3752 17.4677C24.1212 17.4677 24.8541 17.795 25.5002 18.4167L28.3335 21.25"
        stroke="#898989" stroke-width="2" stroke-linecap="round" stroke-linejoin="round" />
</svg>
