<svg width="36" height="36" viewBox="0 0 36 36" fill="none" xmlns="http://www.w3.org/2000/svg">
    <path d="M18 31.5C25.4558 31.5 31.5 25.4558 31.5 18C31.5 10.5442 25.4558 4.5 18 4.5C10.5442 4.5 4.5 10.5442 4.5 18C4.5 25.4558 10.5442 31.5 18 31.5Z" stroke="#898989" stroke-width="2.5" stroke-linecap="round" stroke-linejoin="round"/>
    <path d="M18 19.5C20.4853 19.5 22.5 17.4853 22.5 15C22.5 12.5147 20.4853 10.5 18 10.5C15.5147 10.5 13.5 12.5147 13.5 15C13.5 17.4853 15.5147 19.5 18 19.5Z" stroke="#898989" stroke-width="2.5" stroke-linecap="round" stroke-linejoin="round"/>
    <path d="M9.25201 28.2735C9.62328 27.0378 10.383 25.9548 11.4184 25.185C12.4538 24.4152 13.7098 23.9996 15 24H21C22.2919 23.9996 23.5494 24.4161 24.5856 25.1877C25.6218 25.9593 26.3812 27.0447 26.751 28.2825" stroke="#898989" stroke-width="2.5" stroke-linecap="round" stroke-linejoin="round"/>
</svg>
