<svg width="18" height="18" viewBox="0 0 18 18" fill="none" xmlns="http://www.w3.org/2000/svg">
<path d="M16.3333 5.33325H1.66667C1.16041 5.33325 0.75 5.74366 0.75 6.24992V8.08325C0.75 8.58951 1.16041 8.99992 1.66667 8.99992H16.3333C16.8396 8.99992 17.25 8.58951 17.25 8.08325V6.24992C17.25 5.74366 16.8396 5.33325 16.3333 5.33325Z" stroke="#00AB6C" stroke-width="1.5" stroke-linecap="round" stroke-linejoin="round"/>
<path d="M8.99992 5.33325V17.2499M15.4166 8.99991V15.4166C15.4166 15.9028 15.2234 16.3691 14.8796 16.7129C14.5358 17.0568 14.0695 17.2499 13.5833 17.2499H4.41659C3.93035 17.2499 3.46404 17.0568 3.12022 16.7129C2.77641 16.3691 2.58325 15.9028 2.58325 15.4166V8.99991M4.87492 5.33325C4.26713 5.33325 3.68424 5.0918 3.25447 4.66203C2.82469 4.23226 2.58325 3.64937 2.58325 3.04158C2.58325 2.43379 2.82469 1.8509 3.25447 1.42113C3.68424 0.991355 4.26713 0.749913 4.87492 0.749913C5.75921 0.734506 6.62577 1.16357 7.36159 1.98114C8.09741 2.79872 8.66834 3.96687 8.99992 5.33325C9.3315 3.96687 9.90243 2.79872 10.6382 1.98114C11.3741 1.16357 12.2406 0.734506 13.1249 0.749913C13.7327 0.749913 14.3156 0.991355 14.7454 1.42113C15.1751 1.8509 15.4166 2.43379 15.4166 3.04158C15.4166 3.64937 15.1751 4.23226 14.7454 4.66203C14.3156 5.0918 13.7327 5.33325 13.1249 5.33325" stroke="#00AB6C" stroke-width="1.5" stroke-linecap="round" stroke-linejoin="round"/>
</svg>
