<svg width="36" height="36" viewBox="0 0 36 36" fill="none" xmlns="http://www.w3.org/2000/svg">
<path d="M26.7 29.7255L23.442 31.4325C23.3453 31.4828 23.2366 31.5052 23.1279 31.4973C23.0192 31.4894 22.9148 31.4514 22.8264 31.3876C22.738 31.3239 22.6691 31.2368 22.6274 31.1361C22.5856 31.0354 22.5727 30.9251 22.59 30.8175L23.2125 27.201L20.577 24.6405C20.4984 24.5644 20.4427 24.4678 20.4163 24.3616C20.3899 24.2554 20.3939 24.1439 20.4279 24.0399C20.4618 23.9359 20.5243 23.8435 20.6082 23.7733C20.6922 23.7032 20.7941 23.658 20.9025 23.643L24.5445 23.115L26.1735 19.8255C26.2222 19.7275 26.2973 19.6451 26.3903 19.5874C26.4834 19.5298 26.5906 19.4993 26.7 19.4993C26.8094 19.4993 26.9167 19.5298 27.0097 19.5874C27.1027 19.6451 27.1778 19.7275 27.2265 19.8255L28.8555 23.115L32.4975 23.643C32.6056 23.6585 32.7071 23.704 32.7907 23.7742C32.8743 23.8445 32.9365 23.9367 32.9704 24.0405C33.0042 24.1443 33.0084 24.2555 32.9823 24.3615C32.9563 24.4676 32.9011 24.5642 32.823 24.6405L30.1875 27.201L30.8085 30.816C30.8272 30.9238 30.8152 31.0346 30.774 31.136C30.7328 31.2373 30.664 31.3251 30.5754 31.3893C30.4868 31.4535 30.382 31.4916 30.2729 31.4992C30.1638 31.5068 30.0547 31.4837 29.958 31.4325L26.7 29.7255ZM9.30003 29.7255L6.04203 31.4325C5.94534 31.4828 5.83657 31.5052 5.72787 31.4973C5.61916 31.4894 5.51479 31.4514 5.42641 31.3876C5.33804 31.3239 5.26913 31.2368 5.22739 31.1361C5.18565 31.0354 5.17271 30.9251 5.19003 30.8175L5.81253 27.201L3.17703 24.6405C3.09836 24.5644 3.04266 24.4678 3.01629 24.3616C2.98992 24.2554 2.99393 24.1439 3.02787 24.0399C3.06181 23.9359 3.12432 23.8435 3.20825 23.7733C3.29217 23.7032 3.39415 23.658 3.50253 23.643L7.14453 23.115L8.77353 19.8255C8.82225 19.7275 8.89733 19.6451 8.99035 19.5874C9.08336 19.5298 9.19061 19.4993 9.30003 19.4993C9.40945 19.4993 9.51669 19.5298 9.60971 19.5874C9.70272 19.6451 9.77781 19.7275 9.82653 19.8255L11.4555 23.115L15.0975 23.643C15.2056 23.6585 15.3071 23.704 15.3907 23.7742C15.4743 23.8445 15.5365 23.9367 15.5704 24.0405C15.6042 24.1443 15.6084 24.2555 15.5823 24.3615C15.5563 24.4676 15.5011 24.5642 15.423 24.6405L12.7875 27.201L13.4085 30.816C13.4272 30.9238 13.4152 31.0346 13.374 31.136C13.3328 31.2373 13.264 31.3251 13.1754 31.3893C13.0868 31.4535 12.982 31.4916 12.8729 31.4992C12.7638 31.5068 12.6547 31.4837 12.558 31.4325L9.30003 29.7255V29.7255ZM18 14.7255L14.742 16.4325C14.6453 16.4828 14.5366 16.5052 14.4279 16.4973C14.3192 16.4894 14.2148 16.4514 14.1264 16.3876C14.038 16.3239 13.9691 16.2368 13.9274 16.1361C13.8856 16.0354 13.8727 15.9251 13.89 15.8175L14.5125 12.201L11.877 9.64046C11.7984 9.56442 11.7427 9.46778 11.7163 9.3616C11.6899 9.25541 11.6939 9.14395 11.7279 9.03993C11.7618 8.93592 11.8243 8.84354 11.9082 8.77335C11.9922 8.70316 12.0941 8.65797 12.2025 8.64296L15.8445 8.11496L17.4735 4.82546C17.5222 4.72749 17.5973 4.64505 17.6903 4.58742C17.7834 4.5298 17.8906 4.49927 18 4.49927C18.1094 4.49927 18.2167 4.5298 18.3097 4.58742C18.4027 4.64505 18.4778 4.72749 18.5265 4.82546L20.1555 8.11496L23.7975 8.64296C23.9056 8.65851 24.0071 8.70398 24.0907 8.77424C24.1743 8.8445 24.2365 8.93674 24.2704 9.04052C24.3042 9.14431 24.3084 9.25551 24.2823 9.36153C24.2563 9.46755 24.2011 9.56417 24.123 9.64046L21.4875 12.201L22.1085 15.816C22.1272 15.9238 22.1152 16.0346 22.074 16.136C22.0328 16.2373 21.964 16.3251 21.8754 16.3893C21.7868 16.4535 21.682 16.4916 21.5729 16.4992C21.4638 16.5068 21.3547 16.4837 21.258 16.4325L18 14.7255Z" stroke="#898989" stroke-width="2.5" stroke-linecap="round" stroke-linejoin="round"/>
</svg>
