<svg width="24" height="24" viewBox="0 0 24 24" fill="none" xmlns="http://www.w3.org/2000/svg">
<path d="M14.8844 7.63218L15.0007 7.86798L15.2609 7.9058L21.2101 8.77041C21.2103 8.77044 21.2105 8.77047 21.2107 8.7705C21.3521 8.79182 21.4423 8.92021 21.4222 9.05038L21.4222 9.05037L21.4214 9.05591C21.4138 9.10899 21.3887 9.15885 21.3487 9.19823C21.3486 9.19829 21.3485 9.19836 21.3485 9.19842L17.0439 13.3952L16.8557 13.5787L16.9002 13.8378L17.9173 19.7651L17.9174 19.7655C17.9406 19.8999 17.8504 20.029 17.7135 20.0526L17.7128 20.0528C17.6583 20.0622 17.6026 20.053 17.5576 20.029L17.5553 20.0278L12.2327 17.2294L12 17.107L11.7673 17.2294L6.44465 20.0278L6.44387 20.0282C6.40276 20.0499 6.35638 20.0597 6.31 20.0564C6.26362 20.0531 6.21909 20.0368 6.18147 20.0095C6.14385 19.9822 6.11463 19.9449 6.09714 19.9018C6.07965 19.8587 6.07458 19.8116 6.08251 19.7658L6.08262 19.7651L7.09981 13.8378L7.14427 13.5787L6.95606 13.3952L2.65059 9.19752L2.65056 9.19749C2.60288 9.15102 2.57561 9.08752 2.57473 9.02096C2.57385 8.95469 2.5992 8.89078 2.64522 8.84313C2.68452 8.8033 2.73422 8.77837 2.7871 8.77082L2.7883 8.77064L8.73908 7.9058L8.99927 7.86798L9.11559 7.63218L11.7745 2.24163C11.7747 2.24134 11.7748 2.24104 11.775 2.24075C11.8381 2.11567 11.9897 2.0664 12.1115 2.12653L12.112 2.12681C12.1607 2.15074 12.2001 2.19015 12.224 2.23878L12.2242 2.23921L14.8844 7.63218Z" fill="white" stroke="#EAEAEA"/>
</svg>
