<svg width="10" height="11" viewBox="0 0 10 11" fill="none" xmlns="http://www.w3.org/2000/svg">
<path d="M9.6418 4.13792L6.66641 3.7055L5.33633 1.00901C5.30001 0.935185 5.24024 0.875419 5.16641 0.839091C4.98126 0.747685 4.75626 0.823857 4.66368 1.00901L3.3336 3.7055L0.35821 4.13792C0.276179 4.14964 0.201179 4.18831 0.143757 4.2469C0.0743368 4.31826 0.0360833 4.41425 0.0374018 4.51379C0.0387202 4.61333 0.0795027 4.70828 0.150788 4.77776L2.30352 6.87659L1.79493 9.84026C1.783 9.9092 1.79063 9.98011 1.81695 10.0449C1.84327 10.1098 1.88723 10.1659 1.94384 10.207C2.00045 10.2481 2.06744 10.2726 2.13723 10.2776C2.20702 10.2825 2.27681 10.2679 2.33868 10.2352L5.00001 8.83597L7.66133 10.2352C7.73399 10.2739 7.81837 10.2867 7.89923 10.2727C8.10313 10.2375 8.24024 10.0442 8.20509 9.84026L7.69649 6.87659L9.84923 4.77776C9.90782 4.72034 9.94649 4.64534 9.95821 4.56331C9.98985 4.35823 9.84688 4.16839 9.6418 4.13792V4.13792Z" fill="#FFB500"/>
</svg>
