<svg width="24" height="24" viewBox="0 0 24 24" fill="none" xmlns="http://www.w3.org/2000/svg">
<path d="M9.00009 21H15.0001M9.00009 12H5.41409C5.21634 11.9999 5.02305 11.9413 4.85864 11.8314C4.69423 11.7215 4.56609 11.5653 4.49042 11.3826C4.41475 11.1999 4.39494 10.9989 4.43351 10.8049C4.47208 10.611 4.56728 10.4328 4.70709 10.293L11.2931 3.70697C11.4806 3.5195 11.7349 3.41418 12.0001 3.41418C12.2653 3.41418 12.5196 3.5195 12.7071 3.70697L19.2931 10.293C19.4329 10.4328 19.5281 10.611 19.5667 10.8049C19.6052 10.9989 19.5854 11.1999 19.5098 11.3826C19.4341 11.5653 19.306 11.7215 19.1416 11.8314C18.9771 11.9413 18.7838 11.9999 18.5861 12H15.0001V18H9.00009L9.00009 12Z" stroke="#0CC1EB" stroke-width="2" stroke-linecap="round" stroke-linejoin="round"/>
</svg>
