<svg width="26" height="26" viewBox="0 0 26 26" fill="none" xmlns="http://www.w3.org/2000/svg">
<path d="M14.2188 16.6563C14.2188 16.9796 14.0903 17.2896 13.8618 17.5181C13.6332 17.7467 13.3232 17.8751 13 17.8751C12.6768 17.8751 12.3668 17.7467 12.1382 17.5181C11.9097 17.2896 11.7813 16.9796 11.7813 16.6563C11.7813 16.3331 11.9097 16.0231 12.1382 15.7945C12.3668 15.566 12.6768 15.4376 13 15.4376C13.3232 15.4376 13.6332 15.566 13.8618 15.7945C14.0903 16.0231 14.2188 16.3331 14.2188 16.6563ZM12.1875 13.0001C12.1875 13.2156 12.2731 13.4222 12.4255 13.5746C12.5779 13.727 12.7845 13.8126 13 13.8126C13.2155 13.8126 13.4222 13.727 13.5745 13.5746C13.7269 13.4222 13.8125 13.2156 13.8125 13.0001V8.93758C13.8125 8.72209 13.7269 8.51543 13.5745 8.36305C13.4222 8.21068 13.2155 8.12508 13 8.12508C12.7845 8.12508 12.5779 8.21068 12.4255 8.36305C12.2731 8.51543 12.1875 8.72209 12.1875 8.93758V13.0001ZM11.2271 4.2852C11.4035 3.96988 11.6607 3.70728 11.9723 3.5245C12.284 3.34172 12.6387 3.24536 13 3.24536C13.3613 3.24536 13.716 3.34172 14.0277 3.5245C14.3393 3.70728 14.5965 3.96988 14.7729 4.2852L22.4916 18.101C22.6644 18.41 22.7534 18.7588 22.7498 19.1128C22.7462 19.4668 22.6502 19.8138 22.4712 20.1192C22.2922 20.4247 22.0364 20.678 21.7293 20.8542C21.4222 21.0303 21.0744 21.1232 20.7204 21.1235H5.27475C4.92058 21.1234 4.57256 21.0308 4.26523 20.8548C3.95791 20.6787 3.70195 20.4254 3.52276 20.1199C3.34356 19.8144 3.24736 19.4674 3.2437 19.1132C3.24004 18.7591 3.32904 18.4101 3.50188 18.101L11.2255 4.2852H11.2271ZM13.3543 5.0782C13.3191 5.0149 13.2676 4.96216 13.2052 4.92544C13.1427 4.88872 13.0716 4.86936 12.9992 4.86936C12.9268 4.86936 12.8557 4.88872 12.7932 4.92544C12.7308 4.96216 12.6793 5.0149 12.6441 5.0782L4.92375 18.894C4.8892 18.9558 4.8714 19.0255 4.87212 19.0963C4.87283 19.1671 4.89205 19.2365 4.92785 19.2976C4.96365 19.3587 5.01479 19.4094 5.07621 19.4446C5.13763 19.4798 5.2072 19.4984 5.278 19.4985H20.7204C20.7912 19.4984 20.8607 19.4798 20.9222 19.4446C20.9836 19.4094 21.0347 19.3587 21.0705 19.2976C21.1063 19.2365 21.1255 19.1671 21.1263 19.0963C21.127 19.0255 21.1092 18.9558 21.0746 18.894L13.3559 5.0782H13.3543Z" fill="#00AB6C"/>
</svg>
