<svg width="8" height="10" viewBox="0 0 8 10" fill="none" xmlns="http://www.w3.org/2000/svg">
<path d="M4.21375 0.409052C4.18735 0.378217 4.15458 0.353463 4.1177 0.33649C4.08083 0.319518 4.04071 0.31073 4.00012 0.31073C3.95952 0.31073 3.91941 0.319518 3.88253 0.33649C3.84565 0.353463 3.81289 0.378217 3.78648 0.409052C3.04445 1.27694 0.625 4.27741 0.625 6.49999C0.625 8.57116 1.92906 9.87499 4 9.87499C6.07094 9.87499 7.375 8.57116 7.375 6.49999C7.375 4.27741 4.95555 1.27694 4.21375 0.409052ZM4.375 8.65624C4.32995 8.65634 4.28554 8.64561 4.2455 8.62497C4.20546 8.60433 4.17097 8.57437 4.14492 8.53762C4.11887 8.50087 4.10203 8.4584 4.09582 8.41378C4.08961 8.36917 4.0942 8.32371 4.10922 8.28124C4.1284 8.22582 4.16457 8.17787 4.21258 8.14421C4.2606 8.11054 4.31801 8.09288 4.37664 8.09374C4.74892 8.09293 5.10572 7.94469 5.36896 7.68145C5.6322 7.41821 5.78045 7.06141 5.78125 6.68913C5.78039 6.6305 5.79805 6.57309 5.83172 6.52507C5.86538 6.47706 5.91333 6.44089 5.96875 6.42171C6.01122 6.40669 6.05668 6.4021 6.10129 6.40831C6.14591 6.41452 6.18838 6.43136 6.22513 6.45741C6.26188 6.48346 6.29184 6.51795 6.31248 6.55799C6.33313 6.59803 6.34385 6.64244 6.34375 6.68749C6.34319 7.20946 6.13559 7.7099 5.7665 8.07899C5.39741 8.44808 4.89697 8.65568 4.375 8.65624Z" fill="#00AB6C"/>
</svg>
