<svg width="8" height="10" viewBox="0 0 8 10" fill="none" xmlns="http://www.w3.org/2000/svg">
    <path
        d="M4.21375 0.409067C4.18735 0.378232 4.15458 0.353478 4.1177 0.336506C4.08083 0.319533 4.04071 0.310745 4.00012 0.310745C3.95952 0.310745 3.91941 0.319533 3.88253 0.336506C3.84565 0.353478 3.81289 0.378232 3.78648 0.409067C3.04445 1.27696 0.625 4.27743 0.625 6.5C0.625 8.57118 1.92906 9.875 4 9.875C6.07094 9.875 7.375 8.57118 7.375 6.5C7.375 4.27743 4.95555 1.27696 4.21375 0.409067V0.409067ZM4.375 8.65625C4.32995 8.65635 4.28554 8.64563 4.2455 8.62499C4.20546 8.60435 4.17097 8.57439 4.14492 8.53764C4.11887 8.50088 4.10203 8.45841 4.09582 8.4138C4.08961 8.36918 4.0942 8.32373 4.10922 8.28125C4.1284 8.22584 4.16457 8.17789 4.21258 8.14422C4.2606 8.11056 4.31801 8.0929 4.37664 8.09375C4.74892 8.09295 5.10572 7.94471 5.36896 7.68146C5.6322 7.41822 5.78045 7.06142 5.78125 6.68915C5.78039 6.63051 5.79805 6.5731 5.83172 6.52509C5.86538 6.47707 5.91333 6.4409 5.96875 6.42172C6.01122 6.40671 6.05668 6.40211 6.10129 6.40833C6.14591 6.41454 6.18838 6.43138 6.22513 6.45743C6.26188 6.48347 6.29184 6.51797 6.31248 6.55801C6.33313 6.59805 6.34385 6.64246 6.34375 6.6875C6.34319 7.20948 6.13559 7.70991 5.7665 8.079C5.39741 8.4481 4.89697 8.6557 4.375 8.65625Z"
        fill="#c4c4c4" />
</svg>
